<svg width="150" height="150" viewBox="0 0 150 150" fill="none" xmlns="http://www.w3.org/2000/svg">
<rect width="150" height="150" rx="10" fill="#E5422B"/>
<g clip-path="url(#clip0)">
<path d="M104.589 63.7944L91.8265 56.3618L96.159 48.9226C96.5276 48.2898 96.3117 47.4795 95.6789 47.1109L75.4266 35.316C74.7937 34.9474 73.9849 35.1608 73.6163 35.7937L69.2837 43.2328L56.5192 35.7987C55.8863 35.4302 55.0774 35.6436 54.7089 36.2765L52.7085 39.7111C52.34 40.344 52.5534 41.1528 53.1863 41.5214L101.259 69.519C101.892 69.8876 102.701 69.6741 103.069 69.0412L105.07 65.6066C105.434 64.9748 105.222 64.1635 104.589 63.7949L104.589 63.7944ZM88.5643 54.4619L72.5426 45.1308L74.7428 41.353L90.767 50.6855L88.5643 54.4619Z" fill="white"/>
<path d="M51.0173 109.757C51.0173 112.684 53.3891 115.056 56.3159 115.056H93.4034C96.3302 115.056 98.702 112.684 98.702 109.757V70.022H51.0175L51.0173 109.757ZM85.4539 79.2928C85.4539 78.5604 86.0455 77.9689 86.7779 77.9689H89.4286C90.1609 77.9689 90.7525 78.5632 90.7525 79.2928V105.783C90.7525 106.515 90.1609 107.107 89.4286 107.107H86.7779C86.0455 107.107 85.4539 106.515 85.4539 105.783V79.2928ZM72.209 79.2928C72.209 78.5604 72.8006 77.9689 73.5329 77.9689H76.1836C76.916 77.9689 77.5076 78.5632 77.5076 79.2928V105.783C77.5076 106.515 76.916 107.107 76.1836 107.107H73.5329C72.8005 107.107 72.209 106.515 72.209 105.783V79.2928ZM58.967 79.2928C58.967 78.5604 59.5585 77.9689 60.2909 77.9689H62.9416C63.674 77.9689 64.2655 78.5632 64.2655 79.2928V105.783C64.2655 106.515 63.6711 107.107 62.9416 107.107H60.2909C59.5585 107.107 58.967 106.515 58.967 105.783V79.2928Z" fill="white"/>
<path d="M58.021 66.3713L56.5824 64.4201L53.7041 66.0541L50.5335 63.6884L50.3867 60.5912C50.1428 60.3473 49.777 59.9567 49.5083 59.5908C49.4111 59.4689 49.1672 59.1278 48.8014 57.005L48.7042 56.42L50.7774 54.8833L50.241 51.2982L51.2652 51.2011C51.9483 51.1277 53.0696 50.9819 53.4355 50.8352C54.3625 50.4446 55.6791 50.2502 56.4356 50.2255L59.997 48.5915L63.2411 51.6154V52.7377L66.7042 54.9328L66.0945 55.7617C66.0459 55.8102 65.1675 57.0545 64.3138 58.0301L65.6305 61.6886L65.2646 62.1278C64.1671 63.3959 62.7522 64.9811 62.313 65.2499C62.191 65.3471 61.8004 65.591 58.606 66.2503L58.021 66.3713ZM56.4118 60.8836L58.8508 64.2011C59.8997 63.982 60.9725 63.7133 61.2898 63.5914C61.5822 63.3475 62.5578 62.2747 63.4601 61.2496L62.8017 59.4203C61.9967 60.0549 61.2164 60.5912 61.1678 60.615L60.0703 59.0049C60.6314 58.6143 62.2168 57.4682 62.8751 56.7365C63.2409 56.322 63.6316 55.8095 63.9479 55.4198L61.3384 53.8345C61.3136 53.8345 61.265 53.8593 61.2412 53.8593C60.5343 54.1032 58.949 54.469 58.8756 54.4938L58.1687 54.6643L57.8028 54.0546C57.315 53.2495 56.7301 52.4445 56.4128 52.1768C55.8031 52.2015 54.7789 52.3721 54.1444 52.6398C53.7052 52.8103 53.0221 52.9323 52.4371 53.0304L52.7782 55.2988L54.6322 56.8108L57.7285 56.4688L57.9238 58.42L54.0463 58.8344L51.8998 57.0785L50.8508 57.5178C50.948 57.9808 51.0461 58.3466 51.0947 58.5181C51.3872 58.884 51.8264 59.3232 51.9731 59.4689L52.2656 59.7376L52.4123 62.6893L53.8272 63.7382L55.3877 62.8598L54.8027 62.0795L56.4118 60.8836ZM58.4116 51.444C58.6307 51.7127 58.8508 52.029 59.0947 52.4196C59.6311 52.2729 60.2656 52.1024 60.6067 52.0052C60.6552 51.9804 60.7038 51.9804 60.7772 51.9566L59.6311 50.8839L58.4116 51.444Z" fill="white"/>
</g>
<defs>
<clipPath id="clip0">
<rect x="45" y="35" width="60.2817" height="80" fill="white"/>
</clipPath>
</defs>
</svg>
