<svg width="61" height="80" viewBox="0 0 61 80" fill="none" xmlns="http://www.w3.org/2000/svg">
<g clip-path="url(#clip0)">
<path d="M59.5885 28.7944L46.8265 21.3618L51.159 13.9226C51.5276 13.2898 51.3117 12.4795 50.6789 12.1109L30.4266 0.315952C29.7937 -0.0526308 28.9849 0.160839 28.6163 0.7937L24.2837 8.23283L11.5192 0.798743C10.8863 0.43016 10.0774 0.643629 9.70886 1.27649L7.70855 4.71109C7.33997 5.34396 7.55343 6.15283 8.1863 6.52141L56.259 34.519C56.8918 34.8876 57.7007 34.6741 58.0693 34.0412L60.0696 30.6066C60.4343 29.9748 60.2223 29.1635 59.5894 28.7949L59.5885 28.7944ZM43.5643 19.4619L27.5426 10.1308L29.7428 6.35297L45.767 15.6855L43.5643 19.4619Z" fill="white"/>
<path d="M6.01726 74.7575C6.01726 77.6843 8.38912 80.0561 11.3159 80.0561H48.4034C51.3302 80.0561 53.702 77.6843 53.702 74.7575V35.022H6.01755L6.01726 74.7575ZM40.4539 44.2928C40.4539 43.5604 41.0455 42.9689 41.7779 42.9689H44.4286C45.1609 42.9689 45.7525 43.5632 45.7525 44.2928V70.7826C45.7525 71.515 45.1609 72.1066 44.4286 72.1066H41.7779C41.0455 72.1066 40.4539 71.515 40.4539 70.7826V44.2928ZM27.209 44.2928C27.209 43.5604 27.8006 42.9689 28.5329 42.9689H31.1836C31.916 42.9689 32.5076 43.5632 32.5076 44.2928V70.7826C32.5076 71.515 31.916 72.1066 31.1836 72.1066H28.5329C27.8005 72.1066 27.209 71.515 27.209 70.7826V44.2928ZM13.967 44.2928C13.967 43.5604 14.5585 42.9689 15.2909 42.9689H17.9416C18.674 42.9689 19.2655 43.5632 19.2655 44.2928V70.7826C19.2655 71.515 18.6711 72.1066 17.9416 72.1066H15.2909C14.5585 72.1066 13.967 71.515 13.967 70.7826V44.2928Z" fill="white"/>
<path d="M13.021 31.3713L11.5824 29.4201L8.70413 31.0541L5.53346 28.6884L5.38674 25.5912C5.14284 25.3473 4.77699 24.9567 4.50832 24.5908C4.41114 24.4689 4.16725 24.1278 3.8014 22.005L3.70422 21.42L5.77736 19.8833L5.24097 16.2982L6.26515 16.2011C6.94826 16.1277 8.0696 15.9819 8.43545 15.8352C9.36246 15.4446 10.6791 15.2502 11.4356 15.2255L14.997 13.5915L18.2411 16.6154V17.7377L21.7042 19.9328L21.0945 20.7617C21.0459 20.8102 20.1675 22.0545 19.3138 23.0301L20.6305 26.6886L20.2646 27.1278C19.1671 28.3959 17.7522 29.9811 17.313 30.2499C17.191 30.3471 16.8004 30.591 13.606 31.2503L13.021 31.3713ZM11.4118 25.8836L13.8508 29.2011C14.8997 28.982 15.9725 28.7133 16.2898 28.5914C16.5822 28.3475 17.5578 27.2747 18.4601 26.2496L17.8017 24.4203C16.9967 25.0549 16.2164 25.5912 16.1678 25.615L15.0703 24.0049C15.6314 23.6143 17.2168 22.4682 17.8751 21.7365C18.2409 21.322 18.6316 20.8095 18.9479 20.4198L16.3384 18.8345C16.3136 18.8345 16.265 18.8593 16.2412 18.8593C15.5343 19.1032 13.949 19.469 13.8756 19.4938L13.1687 19.6643L12.8028 19.0546C12.315 18.2495 11.7301 17.4445 11.4128 17.1768C10.8031 17.2015 9.7789 17.3721 9.14438 17.6398C8.70517 17.8103 8.02206 17.9323 7.43709 18.0304L7.77816 20.2988L9.63217 21.8108L12.7285 21.4688L12.9238 23.42L9.04628 23.8344L6.89978 22.0785L5.85083 22.5178C5.94801 22.9808 6.04614 23.3466 6.09472 23.5181C6.38721 23.884 6.82642 24.3232 6.97315 24.4689L7.26563 24.7376L7.41235 27.6893L8.82715 28.7382L10.3877 27.8598L9.80274 27.0795L11.4118 25.8836ZM13.4116 16.444C13.6307 16.7127 13.8508 17.029 14.0947 17.4196C14.6311 17.2729 15.2656 17.1024 15.6067 17.0052C15.6552 16.9804 15.7038 16.9804 15.7772 16.9566L14.6311 15.8839L13.4116 16.444Z" fill="white"/>
</g>
<defs>
<clipPath id="clip0">
<rect width="60.2817" height="80" fill="white"/>
</clipPath>
</defs>
</svg>
